<svg width="54" height="54" viewBox="0 0 54 54" fill="none" xmlns="http://www.w3.org/2000/svg">
<path d="M38.1878 2.4L42.3646 6.9L35.8011 13.5C34.6077 14.7 34.6077 16.5 35.8011 17.7C36.9945 18.9 38.7845 18.9 39.9779 17.7L46.5414 11.1L51.0166 15.3C52.2099 16.5 53.7017 15.6 53.7017 14.4V1.5C53.7017 0.6 53.105 0 52.2099 0H39.3812C38.1878 0 37.2928 1.5 38.1878 2.4ZM2.38674 15.3L6.56354 11.1L13.1271 17.7C14.3204 18.9 16.1105 18.9 17.3039 17.7C18.4972 16.5 18.4972 14.7 17.3039 13.5L11.0387 6.9L15.2155 2.4C16.4088 1.5 15.5138 0 14.3204 0H1.49171C0.596685 0 0 0.6 0 1.5V14.4C0 15.6 1.49171 16.5 2.38674 15.3ZM15.2155 51.3L10.7403 47.1L17.3039 40.5C18.4972 39.3 18.4972 37.5 17.3039 36.3C16.1105 35.1 14.3204 35.1 13.1271 36.3L6.56354 42.9L2.0884 38.7C1.49171 37.5 0 38.4 0 39.6V52.5C0 53.4 0.596685 54 1.49171 54H14.3204C15.5138 54 16.4088 52.5 15.2155 51.3ZM51.3149 38.4L46.8398 42.6L40.2762 36C39.0829 34.8 37.2928 34.8 36.0994 36C34.9061 37.2 34.9061 39 36.0994 40.2L42.663 46.8L38.4862 51.3C37.5912 52.2 38.1878 54 39.6796 54H52.5083C53.4033 54 54 53.4 54 52.5V39.6C53.7017 38.4 52.2099 37.5 51.3149 38.4Z" fill="white"/>
</svg>
